<svg width="399" height="387" viewBox="0 0 399 387" fill="none" xmlns="http://www.w3.org/2000/svg">
<g clip-path="url(#clip0_391_964)">
<path d="M50.0706 71.2724L190.95 4.07792C196.362 1.49674 202.646 1.47962 208.072 4.03128L350.935 71.2186C356.512 73.8415 360.568 78.8894 361.929 84.9004L396.884 239.279C398.222 245.188 396.809 251.385 393.043 256.13L295.217 379.374C291.395 384.188 285.572 386.977 279.426 386.939L119.419 385.935C113.361 385.897 107.646 383.115 103.88 378.37L6.06285 255.138C2.23627 250.317 0.842491 244.003 2.28411 238.019L39.237 84.6397C40.649 78.7789 44.6293 73.8677 50.0706 71.2724Z" fill="url(#paint0_linear_391_964)"/>
<path d="M71.6565 93.5173L196.255 34.4372C198.949 33.1596 202.073 33.1511 204.774 34.4141L331.132 93.4905C333.926 94.7971 335.962 97.3205 336.647 100.329L367.546 235.996C368.222 238.964 367.509 242.078 365.61 244.456L279.089 352.818C277.178 355.212 274.275 356.597 271.212 356.578L129.729 355.696C126.71 355.677 123.861 354.295 121.977 351.936L35.461 243.58C33.5316 241.164 32.8286 237.991 33.5569 234.986L66.2222 100.198C66.9329 97.2651 68.9299 94.8102 71.6565 93.5173Z" fill="white"/>
<path d="M72 289.5L273.5 66.5L200.676 31.7598L66.4986 95.2795L31.7773 239.963L72 289.5Z" fill="#F8EEFF"/>
<path d="M72 289.5L172.431 177.621L273.5 66.5L336.621 95.2801L368.988 241.14L276.5 357L125 356L72 289.5Z" fill="#ECDFF5"/>
<path d="M238.169 289.744C234.54 283.865 230.219 277.554 225.207 270.811C220.368 263.895 215.01 257.066 209.134 250.322C203.43 243.406 197.467 236.836 191.245 230.612C185.023 224.214 178.801 218.595 172.58 213.754V289.744H132.137V110.014H172.58V177.964C183.122 166.898 193.665 155.4 204.208 143.47C214.923 131.367 224.861 120.215 234.021 110.014H281.983C269.711 124.537 257.354 138.542 244.91 152.029C232.639 165.515 219.676 179.087 206.023 192.747C220.368 204.677 234.194 218.855 247.502 235.28C260.983 251.706 273.859 269.86 286.13 289.744H238.169Z" fill="#794EA6"/>
</g>
<defs>
<linearGradient id="paint0_linear_391_964" x1="0" y1="0" x2="399.152" y2="386.843" gradientUnits="userSpaceOnUse">
<stop stop-color="#552586"/>
<stop offset="1" stop-color="#B78DD7"/>
</linearGradient>
<clipPath id="clip0_391_964">
<rect width="399" height="387" fill="white"/>
</clipPath>
</defs>
</svg>
